<?xml version="1.0" encoding="utf-8"?>
<!-- Generator: Adobe Illustrator 25.0.0, SVG Export Plug-In . SVG Version: 6.00 Build 0)  -->
<svg version="1.1" id="Layer_1" xmlns="http://www.w3.org/2000/svg" xmlns:xlink="http://www.w3.org/1999/xlink" x="0px" y="0px"
	 viewBox="0 0 1920 1080" style="enable-background:new 0 0 1920 1080;" xml:space="preserve">
<style type="text/css">
	.st0{fill:#384C9A;}
	.st1{fill:#394D9A;}
	.st2{fill:#3A4D9B;}
	.st3{fill:#394D9B;}
	.st4{fill:#3A4E9B;}
	.st5{fill:#384F9D;}
	.st6{fill:#364A99;}
	.st7{fill:#2D4395;}
	.st8{fill:#3A509D;}
	.st9{fill:#3C529F;}
	.st10{fill:#FCFDFD;}
	.st11{fill:#FEFEFE;}
	.st12{fill:#FDFDFD;}
</style>
<path class="st0" d="M622.68,378.34c9.41,2.38,15.85,6.07,20.92,12.55c14.57,18.6,28.19,20.44,47.35,5.91
	c17.86-13.55,30.54-32.16,45.51-48.52c12.33-13.48,23.79-27.76,35.66-41.66c5.3-6.21,12.01-8.09,15.9-3.85
	c4.89,5.34,4.15,11.67-0.13,16.88c-12.49,15.22-25.36,30.11-38.09,45.13c-1.46,1.72-3.09,3.3-4.43,5.09
	c-2.32,3.09-2.61,6.45,0.46,9.07c3.32,2.83,6.1,1.13,8.61-1.8c9.15-10.68,18.41-21.26,27.64-31.88c2.4-2.76,4.89-5.44,7.24-8.25
	c4.04-4.84,8.98-8.03,14.31-2.91c4.93,4.74,4.24,10.67-0.19,15.92c-9.25,10.97-18.52,21.92-27.79,32.87
	c-2.72,3.22-5.7,6.26-8.14,9.68c-2.38,3.34-4.08,7.38,0.17,10.42c3.87,2.77,6.65,0.08,9.19-2.96c9.02-10.79,18.16-21.49,27.24-32.23
	c4.24-5.01,8.89-9.27,15.76-4.79c5.24,3.42,4.87,10.84-0.7,17.93c-6.61,8.4-13.42,16.64-20.12,24.97c-1.57,1.95-3.55,3.65-3.82,6.4
	c-0.28,2.82-0.87,5.78,2.14,7.55c3.02,1.78,5.37,0.19,7.42-1.96c3.49-3.66,6.99-7.33,10.39-11.08c3.98-4.39,8.84-7.25,13.87-2.88
	c5.24,4.55,4.77,10.48,0.24,15.72c-3.86,4.47-8.01,8.68-11.9,13.13c-6.4,7.34-11.58,15.33-11.49,25.55c0.03,3.76-1.2,4.9-4.93,4.41
	c-10.79-1.43-19.54,0.8-23.04,12.91c-1.16,4-5.26,2.36-8.11,2.41c-15.62,0.23-17.57,1.47-21.33,16.59c-0.93,3.73-2.8,4.51-5.86,4.25
	c-7.31-0.6-14.83-0.7-17.56,7.75c-3.24,10.04-5.15,20.79,2.58,29.62c4.03,4.61,3.7,6.37-0.76,10.11
	c-11.3,9.47-12.18,24.64-2.52,35.93c5.48,6.41,10.92,12.95,17.15,18.58c3.91,3.54,3,5.51,0.24,8.77
	c-15.53,18.32-34.64,31.69-55.93,42.56c-28.3,14.45-58.3,19.21-89.67,19.15c-40.49-0.08-80.97,0.69-121.46,0.99
	c-3.9,0.03-7.86-0.4-11.7-1.13c-18.24-3.48-27.73-14.71-28.22-33.43c-0.22-8.44-0.04-16.89-0.04-25.34
	c0-119.67,0.01-239.34-0.03-359.01c0-6.8,0.5-13.49,2.7-19.96c4.55-13.39,13.68-19.77,27.68-20.44
	c51.72-2.48,103.45-1.46,155.17-0.68c29.48,0.45,57.18,8.42,81.07,26.7c21.46,16.41,42.72,33.03,58.86,55.21
	c3.38,4.64,4.02,7.33-0.21,11.93c-23.22,25.25-45.97,50.94-69.06,76.32c-14.42,15.86-27.87,15.02-41.3-1.7
	c-8.83-11-21.17-15.61-34.81-16.27c-16.27-0.78-32.61-0.4-48.88-1.23c-7.22-0.37-8.6,2.76-8.57,8.9
	c0.15,26.74,0.06,53.49,0.06,80.23c0,19.71,0.16,39.42-0.06,59.13c-0.06,5.62,1.4,7.73,7.51,7.52c14.61-0.5,29.25-0.21,43.88-0.14
	c5.41,0.03,11.44,0.21,15.57-2.77c9.96-7.19,17.76-2.85,25.88,2.81c7.14,4.98,14.51,9.64,21.51,14.81
	c10.04,7.41,20.12,4.94,24.56-6.91c4.1-10.93,3.37-21.74-4.39-31.01c-4.31-5.15-8.81-10.68-14.42-14.05
	c-6.41-3.85-7.55-8.82-7.68-15.24c-0.34-15.68-6.4-24.53-22.08-28.48c-12.73-3.21-14.87-10.48-15.68-20.57
	C631,404.61,627.8,392.12,622.68,378.34z"/>
<path class="st1" d="M788.91,567.99c5.68-7.34,9.25-16.26,16.68-22.28c0,0-0.16,0.16-0.16,0.16c25.51-26.33,60.59-27.28,92.71-2.52
	c1.98-14.01,1.98-14.01,17.2-14.01c20.75,0,20.75,0,20.75,21c0,37.96-0.17,75.93,0.16,113.89c0.06,6.69-1.78,8.9-8.42,8.33
	c-6.69-0.57-13.52-0.6-20.21,0c-7.02,0.63-9.83-1.76-8.73-8.78c0.28-1.8,0.04-3.68,0.04-6.14c-27.77,21.69-57.26,24.35-82.14,8.03
	c-27.14-17.8-39.4-52.15-30.84-86.33c0.66-2.65,2.49-5.11,1.38-8.07l-0.09,0.12c2.3-0.32,1.95-1.97,1.78-3.53L788.91,567.99z
	 M820.75,601.14c0.08,23.38,15.99,39.47,39,39.45c22.76-0.03,39.09-16.52,39.17-39.56c0.08-23.14-16.91-40.29-39.71-40.1
	C836.65,561.13,820.67,577.84,820.75,601.14z"/>
<path class="st2" d="M1107.72,608.58c0,20.16-0.25,37.79,0.13,55.4c0.14,6.31-1.09,9.35-8.2,8.57c-9.41-1.03-21.76,3.89-27.58-1.95
	c-5.39-5.41-1.44-17.67-1.46-26.91c-0.12-54.34,0.06-108.69-0.21-163.03c-0.03-6.59,1.62-9,8.36-8.44
	c6.99,0.58,14.08,0.53,21.08,0.01c6.28-0.47,8.1,1.51,8.03,7.94c-0.34,33.5-0.16,67.01-0.16,100.52c0,2.67,0,5.35,0,10.29
	c15.46-19.73,29.61-37.43,43.29-55.49c3.41-4.5,6.8-6.53,12.51-6.31c11.51,0.45,23.05,0.13,34.51,0.13c1.59,3.03-1,4.26-2.26,5.82
	c-16.08,19.92-32.11,39.89-48.48,59.57c-3.31,3.98-3.52,6.35-0.09,10.43c15.75,18.74,31.14,37.77,46.57,56.77
	c2.4,2.96,5.49,5.51,7.11,10.49c-13.62,0-26.67,0.03-39.73-0.02c-3.72-0.02-4.96-3.4-6.81-5.7
	C1139.31,648.09,1124.39,629.4,1107.72,608.58z"/>
<path class="st3" d="M1202.22,600.57c0.07-42.81,32.57-75.23,75.32-75.13c43.19,0.1,75.31,33.02,75.21,77.1
	c-0.1,41.99-33.13,73.64-76.75,73.55C1233.79,675.99,1202.16,643.61,1202.22,600.57z M1315.73,600.99
	c0.03-22.36-16.84-39.63-38.55-39.48c-21.6,0.16-37.74,16.86-37.81,39.13c-0.07,22.81,15.33,38.83,37.48,38.99
	C1299.38,639.81,1315.7,623.58,1315.73,600.99z"/>
<path class="st4" d="M1415.48,548.3c9.72-13.25,22.16-20.03,37.9-21.5c4.22-0.39,5.57,0.55,5.5,4.72
	c-0.17,10.42-0.22,20.84,0.02,31.26c0.1,4.18-1.41,4.92-5.38,5.05c-26.38,0.85-38.02,13.19-38.04,39.82
	c-0.01,19.43-0.17,38.86,0.11,58.29c0.07,5.23-1.57,6.85-6.71,6.61c-8.42-0.39-16.88-0.26-25.31-0.04c-4.07,0.1-5.32-1.45-5.31-5.41
	c0.1-44.21,0.1-88.42,0-132.64c-0.01-4.21,1.71-5.27,5.54-5.18c8.15,0.19,16.34,0.46,24.47-0.07c6.2-0.4,7.88,2.04,7.3,7.71
	C1415.17,540.67,1415.48,544.5,1415.48,548.3z"/>
<path class="st3" d="M1006.44,548.05c9.7-13.59,22.21-19.83,37.71-21.26c3.73-0.35,5.12,0.49,5.07,4.3
	c-0.14,10.7-0.17,21.4,0.02,32.09c0.06,3.72-1.21,4.48-4.87,4.64c-27.15,1.23-37.93,12.6-37.93,39.53c0,18.58-0.47,37.18,0.21,55.74
	c0.3,8.16-2.52,10.13-9.93,9.47c-6.42-0.58-12.95-0.48-19.39-0.01c-5.97,0.44-8.28-0.97-8.23-7.68
	c0.33-42.79,0.25-85.58,0.06-128.38c-0.02-5.28,1.05-7.64,6.9-7.27c7.84,0.5,15.77,0.49,23.61,0c5.92-0.37,7.3,2.12,6.82,7.36
	C1006.16,540.37,1006.44,544.22,1006.44,548.05z"/>
<path class="st5" d="M690.33,514.23c-0.19,14.48-5.22,17.48-16.31,11.54c-12.14-6.51-23.7-13.98-35.26-21.46
	c-5.88-3.81-7.54-8.52-5.83-15.08c3.12-11.97,6.13-23.99,5.76-36.52c-0.08-2.74,0.64-3.88,3.88-3.7
	c9.12,0.51,16.03,6.21,17.53,15.17c0.23,1.38,0.51,2.81,0.41,4.19c-0.66,9.58,2.85,15.51,12.18,19.99
	C683.49,493.53,689.81,503.42,690.33,514.23z"/>
<path class="st6" d="M1539.77,658.18c8.03,0,14.08,0.28,20.09-0.08c5.73-0.35,5.39,3.14,5.4,7.01c0.01,3.88,0.3,7.18-5.41,7.01
	c-11.22-0.33-22.45,0.04-33.67-0.19c-2.74-0.06-6.93,1.96-8.01-2.03c-1.06-3.88-1.2-8.08,2.56-11.6c6.55-6.13,12.7-12.7,18.83-19.25
	c3.05-3.26,6.08-6.67,8.45-10.43c2.94-4.68,3.49-9.79-1.73-13.41c-4.79-3.32-10.03-2.68-13.57,1.75c-3.22,4.03-5.51,3.67-9.62,1.39
	c-5.45-3.02-5.82-5.54-1.74-10.06c8.71-9.65,24.18-11.49,34.32-3.7c9.68,7.43,11.12,20.11,3.7,31.67
	C1554.46,643.89,1546.91,649.13,1539.77,658.18z"/>
<path class="st7" d="M1486.29,658.24c7.29,0,13.06,0.35,18.75-0.1c5.36-0.42,6.57,1.63,6.56,6.7c-0.01,5.24-1.06,7.49-6.9,7.24
	c-10.93-0.47-21.9-0.02-32.85-0.22c-2.52-0.04-6.43,1.74-7.33-1.84c-0.89-3.56-1.47-7.62,1.98-10.96
	c6.45-6.25,12.7-12.72,18.84-19.28c3.24-3.47,6.43-7.09,9-11.06c3-4.64,3.59-9.84-1.47-13.51c-4.67-3.39-10.31-2.93-13.65,1.52
	c-5.82,7.75-9.54,0.73-13.73-1.33c-2.77-1.36-0.16-3.47,0.74-4.87c6.75-10.6,22.58-13.99,33.67-7.34
	c10.97,6.58,13.67,19.62,6.72,31.64C1501.68,643.35,1493.17,648.79,1486.29,658.24z"/>
<path class="st8" d="M787.33,571.28c-8.91,4.67-15.04,1.41-20.87-6.08c-9.14-11.73-20.13-21.94-28.83-34.08
	c-4.68-6.52-4.69-13.54,0.24-17.34c6.24-4.79,11.37-1.28,15.43,3.26c11.03,12.36,21.67,25.07,32.49,37.62
	c3.38,3.92,2.22,8.85,3.13,13.32c0,0,0.11-0.13,0.11-0.13c-2.48,0.23-3.15,1.36-1.78,3.53L787.33,571.28z"/>
<path class="st8" d="M805.43,545.87c0,0,0.16-0.16,0.16-0.16c-11.92,2.76-17.43-5.7-23.61-13.29c-6.91-8.48-14.07-16.78-21.26-25.02
	c-3.6-4.13-3.97-8.62-1.89-13.31c2.63-5.94,9.27-7.42,13.65-2.64c10.81,11.78,21.25,23.92,31.8,35.95c3.05,3.48,3.3,7.37,2.14,11.83
	C805.88,541.29,802.57,543.25,805.43,545.87z"/>
<path class="st8" d="M770.43,590.24c-0.08,5.36-1.98,8.88-6.34,10.77c-3.97,1.73-6.87-0.07-9.78-2.77
	c-8.69-8.06-16.39-17-23.67-26.31c-4.31-5.51-4.02-11.28,1.19-15.74c5.2-4.46,9.59-1.76,13.64,2.84c6.68,7.6,13.75,14.85,20.7,22.21
	C768.77,583.99,770.63,587,770.43,590.24z"/>
<path class="st9" d="M817.86,495.5c-0.6,6.39-2.43,10.23-7,12.4c-4.84,2.3-8.12-0.33-10.97-3.62c-3.67-4.24-7.2-8.63-10.57-13.12
	c-3.82-5.09-3.25-13.61,1.29-16.77c5.82-4.05,10.76-1.67,14.62,3.22C810.02,483.68,815.84,489.13,817.86,495.5z"/>
<path class="st10" d="M820.75,601.14c-0.08-23.31,15.9-40.02,38.46-40.2c22.8-0.19,39.79,16.96,39.71,40.1
	c-0.08,23.04-16.41,39.53-39.17,39.56C836.74,640.62,820.84,624.53,820.75,601.14z"/>
<path class="st11" d="M787.23,571.4c-1.37-2.17-0.7-3.31,1.78-3.53C789.18,569.43,789.54,571.08,787.23,571.4z"/>
<path class="st12" d="M1315.73,600.99c-0.03,22.59-16.35,38.82-38.88,38.65c-22.15-0.17-37.54-16.19-37.48-38.99
	c0.07-22.27,16.2-38.98,37.81-39.13C1298.89,561.35,1315.76,578.63,1315.73,600.99z"/>
</svg>
